<svg width="170" height="170" viewBox="0 0 170 170" fill="none" xmlns="http://www.w3.org/2000/svg">
<path d="M51.4648 17.5977C32.7605 17.5977 17.5977 32.7605 17.5977 51.4648V122.52C17.5977 141.224 32.7605 156.387 51.4648 156.387H122.52C141.224 156.387 156.387 141.224 156.387 122.52V51.4648C156.387 32.7605 141.224 17.5977 122.52 17.5977H51.4648Z" fill="black"/>
<path d="M49.4727 15.6055C30.7683 15.6055 15.6055 30.7683 15.6055 49.4727V120.527C15.6055 139.232 30.7683 154.395 49.4727 154.395H120.527C139.232 154.395 154.395 139.232 154.395 120.527V49.4727C154.395 30.7683 139.232 15.6055 120.527 15.6055H49.4727Z" fill="#F2E6F7"/>
<g clip-path="url(#clip0_31_144)">
<path d="M-68.4479 124.939C-68.1775 125.637 -68.0424 126.426 -68.0424 127.304C-68.0424 128.408 -68.3241 129.399 -68.8873 130.277C-69.428 131.156 -70.2729 131.843 -71.422 132.338C-72.5486 132.834 -73.9905 133.082 -75.748 133.082C-77.1899 133.082 -78.5193 132.935 -79.7359 132.643C-80.9301 132.35 -81.9665 131.877 -82.8452 131.224C-83.7015 130.57 -84.3661 129.714 -84.8392 128.656C-85.3124 127.597 -85.5489 126.302 -85.5489 124.77H-95.7217C-95.7217 127.541 -95.1471 129.94 -93.9981 131.967C-92.849 133.994 -91.3168 135.661 -89.4017 136.967C-87.464 138.273 -85.3124 139.253 -82.9466 139.907C-80.5809 140.537 -78.1813 140.853 -75.748 140.853C-73.0442 140.853 -70.5996 140.548 -68.4141 139.94C-66.2287 139.332 -64.3472 138.442 -62.7701 137.271C-61.193 136.1 -59.9875 134.67 -59.1539 132.98C-58.3203 131.291 -57.9034 129.377 -57.9034 127.237C-57.9034 125.21 -58.2527 123.396 -58.9511 121.797C-59.6495 120.198 -60.686 118.768 -62.0604 117.506C-63.4347 116.245 -65.1472 115.108 -67.1974 114.094C-69.2252 113.08 -71.5797 112.168 -74.2609 111.357C-75.8607 110.862 -77.2688 110.355 -78.4855 109.837C-79.7021 109.319 -80.7274 108.767 -81.561 108.181C-82.3945 107.596 -83.0255 106.965 -83.4536 106.289C-83.8591 105.614 -84.0619 104.859 -84.0619 104.026C-84.0619 102.922 -83.769 101.931 -83.1832 101.053C-82.5973 100.152 -81.7186 99.4422 -80.5471 98.9241C-79.3755 98.3835 -77.9109 98.1132 -76.1535 98.1132C-74.3285 98.1132 -72.819 98.4286 -71.6248 99.0592C-70.4081 99.6898 -69.5069 100.557 -68.9211 101.661C-68.3127 102.742 -68.0086 104.003 -68.0086 105.445H-57.9372C-57.9372 102.517 -58.6921 99.9152 -60.2016 97.6402C-61.6886 95.3652 -63.784 93.5746 -66.4877 92.2682C-69.1914 90.9619 -72.357 90.3087 -75.9845 90.3087C-78.6431 90.3087 -81.0878 90.6352 -83.3184 91.2884C-85.5265 91.9417 -87.4415 92.8764 -89.0638 94.0927C-90.686 95.2865 -91.9478 96.728 -92.849 98.4173C-93.7502 100.084 -94.2008 101.942 -94.2008 103.992C-94.2008 106.109 -93.7728 107.967 -92.9166 109.567C-92.0379 111.166 -90.8437 112.574 -89.3341 113.79C-87.802 114.984 -86.0446 116.031 -84.0619 116.932C-82.0566 117.833 -79.9387 118.644 -77.7082 119.365C-75.7028 119.995 -74.0695 120.603 -72.8077 121.189C-71.5459 121.775 -70.5658 122.372 -69.8674 122.98C-69.169 123.565 -68.6958 124.218 -68.4479 124.939Z" fill="black"/>
<path d="M-42.1205 107.676V88.2815H-51.8538V140.177H-42.1205V114.027C-42.0243 113.853 -41.9229 113.684 -41.8163 113.52C-41.2304 112.596 -40.4531 111.875 -39.4843 111.357C-38.4929 110.839 -37.2989 110.58 -35.9019 110.58C-34.6401 110.58 -33.5813 110.783 -32.725 111.188C-31.8463 111.571 -31.1817 112.236 -30.731 113.182C-30.2579 114.105 -30.0213 115.378 -30.0213 117V140.177H-20.2203V117.067C-20.2203 114.499 -20.5132 112.315 -21.099 110.513C-21.6849 108.711 -22.5185 107.258 -23.6 106.154C-24.659 105.028 -25.9319 104.217 -27.419 103.722C-28.8836 103.204 -30.5169 102.945 -32.3195 102.945C-34.3924 102.945 -36.285 103.384 -37.9973 104.262C-39.579 105.084 -40.9533 106.222 -42.1205 107.676Z" fill="black"/>
<path fill-rule="evenodd" clip-rule="evenodd" d="M7.30555 136.744C6.96015 137.144 6.58315 137.534 6.17472 137.913C5.22841 138.769 4.09066 139.479 2.76127 140.042C1.43189 140.582 -0.145227 140.853 -1.97024 140.853C-4.29087 140.853 -6.39758 140.391 -8.29018 139.467C-10.1603 138.521 -11.6474 137.226 -12.7513 135.582C-13.8328 133.915 -14.3735 132.023 -14.3735 129.906C-14.3735 127.991 -14.0131 126.291 -13.2921 124.804C-12.571 123.318 -11.5122 122.067 -10.1152 121.054C-8.69574 120.018 -6.927 119.241 -4.80914 118.723C-2.69128 118.182 -0.235295 117.912 2.55849 117.912H6.91824V115.648C6.91824 114.477 6.72678 113.475 6.3437 112.641C5.96061 111.785 5.3636 111.121 4.55248 110.648C3.76384 110.175 2.7388 109.938 1.477 109.938C0.395517 109.938 -0.539463 110.13 -1.3281 110.513C-2.11674 110.873 -2.72508 111.402 -3.15311 112.101C-3.58115 112.776 -3.79525 113.576 -3.79525 114.499H-13.5286C-13.5286 112.945 -13.1682 111.47 -12.4471 110.073C-11.7261 108.677 -10.6784 107.449 -9.30407 106.391C-7.92974 105.31 -6.29619 104.465 -4.40358 103.857C-2.48851 103.249 -0.348006 102.945 2.01775 102.945C4.85665 102.945 7.38007 103.418 9.58816 104.364C11.7963 105.31 13.531 106.729 14.7928 108.621C16.0771 110.513 16.7192 112.878 16.7192 115.716V131.359C16.7192 133.363 16.8431 135.008 17.091 136.291C17.3389 137.553 17.6993 138.656 18.1725 139.602V140.177H8.33769C7.89496 139.25 7.55108 138.105 7.30555 136.744ZM6.91824 129.845C6.79437 130.075 6.64804 130.31 6.47888 130.548C5.89302 131.404 5.05943 132.124 3.97794 132.71C2.89646 133.296 1.62351 133.589 0.158941 133.589C-0.809835 133.589 -1.65475 133.408 -2.37579 133.048C-3.09684 132.665 -3.64874 132.147 -4.03182 131.494C-4.41491 130.818 -4.60636 130.063 -4.60636 129.23C-4.60636 128.397 -4.47118 127.631 -4.2008 126.933C-3.90796 126.234 -3.45728 125.626 -2.84895 125.108C-2.24061 124.568 -1.46329 124.151 -0.516988 123.858C0.429313 123.565 1.5446 123.419 2.82886 123.419H6.91824V129.845Z" fill="black"/>
<path fill-rule="evenodd" clip-rule="evenodd" d="M46.319 136.279C45.2742 137.633 44.0371 138.707 42.6073 139.501C40.9851 140.402 39.0925 140.853 36.9295 140.853C34.6538 140.853 32.626 140.391 30.8461 139.467C29.0887 138.544 27.6017 137.249 26.385 135.582C25.1908 133.915 24.2783 131.955 23.6475 129.703C23.0167 127.451 22.7012 124.996 22.7012 122.338V121.628C22.7012 118.835 23.0167 116.301 23.6475 114.026C24.2783 111.729 25.2021 109.758 26.4188 108.114C27.6355 106.47 29.1338 105.197 30.9137 104.296C32.6936 103.395 34.7214 102.945 36.9971 102.945C39.1376 102.945 41.0076 103.395 42.6073 104.296C43.8149 104.967 44.885 105.85 45.818 106.945V88.2815H55.619V140.177H46.7981L46.319 136.279ZM45.818 114.526C45.5777 114.023 45.296 113.563 44.9731 113.148C44.3647 112.337 43.5987 111.707 42.6749 111.256C41.7737 110.805 40.7034 110.58 39.4643 110.58C38.2025 110.58 37.121 110.873 36.2198 111.459C35.3186 112.022 34.5862 112.799 34.023 113.79C33.4823 114.781 33.0767 115.952 32.8063 117.304C32.5584 118.633 32.4346 120.074 32.4346 121.628V122.338C32.4346 123.847 32.5473 125.255 32.7725 126.561C33.0204 127.867 33.4147 129.027 33.9554 130.041C34.5186 131.032 35.2397 131.809 36.1184 132.372C37.0196 132.913 38.1124 133.183 39.3967 133.183C41.064 133.183 42.4383 132.811 43.5198 132.068C44.4977 131.376 45.2639 130.453 45.818 129.3V114.526Z" fill="black"/>
<path fill-rule="evenodd" clip-rule="evenodd" d="M72.4158 139.501C74.6689 140.402 77.2149 140.853 80.0538 140.853C82.4196 140.853 84.5263 140.537 86.3738 139.907C88.2213 139.253 89.7985 138.42 91.1053 137.406C92.4347 136.393 93.4824 135.334 94.2483 134.23L89.5168 129.095C88.4129 130.492 87.0948 131.539 85.5627 132.237C84.0531 132.913 82.4196 133.251 80.6622 133.251C79.2427 133.251 77.9698 133.003 76.8432 132.507C75.7392 132.012 74.7929 131.314 74.0043 130.413C73.2383 129.512 72.6411 128.442 72.213 127.203C71.9749 126.476 71.8068 125.71 71.7085 124.906H95.0595V120.851C95.0595 118.171 94.7102 115.738 94.0118 113.553C93.3134 111.346 92.2768 109.454 90.9025 107.877C89.5506 106.301 87.8721 105.084 85.8668 104.228C83.8615 103.373 81.5633 102.945 78.9723 102.945C76.3137 102.945 73.9253 103.406 71.8075 104.33C69.6896 105.231 67.8871 106.526 66.4 108.215C64.9355 109.905 63.809 111.898 63.0204 114.195C62.2318 116.493 61.8375 119.027 61.8375 121.797V123.149C61.8375 125.581 62.2544 127.879 63.088 130.041C63.9216 132.181 65.1158 134.062 66.6704 135.683C68.2475 137.305 70.1628 138.578 72.4158 139.501ZM71.8269 118.419C71.879 118.049 71.94 117.689 72.0103 117.337C72.3031 115.964 72.7313 114.77 73.2945 113.756C73.8804 112.743 74.6351 111.954 75.5589 111.391C76.4827 110.828 77.5867 110.546 78.8709 110.546C80.3805 110.546 81.6198 110.862 82.5886 111.492C83.5573 112.123 84.2784 112.979 84.7515 114.06C85.2472 115.119 85.4951 116.324 85.4951 117.675V118.419H71.8269Z" fill="black"/>
<path d="M119.765 128.183C120.17 128.746 120.373 129.377 120.373 130.075C120.373 130.863 120.148 131.561 119.697 132.17C119.269 132.755 118.638 133.228 117.804 133.589C116.971 133.926 115.923 134.095 114.661 134.095C113.49 134.095 112.397 133.915 111.383 133.555C110.392 133.194 109.569 132.609 108.916 131.798C108.285 130.987 107.947 129.917 107.902 128.588H98.6757C98.6757 130.57 99.2727 132.507 100.467 134.399C101.684 136.269 103.463 137.812 105.807 139.028C108.172 140.244 111.057 140.853 114.459 140.853C116.802 140.853 118.908 140.582 120.779 140.042C122.671 139.479 124.293 138.702 125.645 137.71C126.997 136.697 128.034 135.514 128.755 134.163C129.476 132.811 129.836 131.325 129.836 129.703C129.836 127.316 129.228 125.39 128.011 123.926C126.794 122.439 125.15 121.268 123.077 120.412C121.004 119.534 118.649 118.824 116.013 118.283C114.729 118.036 113.648 117.765 112.769 117.473C111.913 117.157 111.214 116.819 110.673 116.459C110.133 116.099 109.738 115.704 109.491 115.277C109.265 114.826 109.153 114.319 109.153 113.756C109.153 113.013 109.355 112.337 109.761 111.729C110.189 111.098 110.797 110.603 111.586 110.242C112.375 109.859 113.31 109.668 114.391 109.668C115.698 109.668 116.757 109.893 117.568 110.344C118.402 110.772 119.01 111.369 119.393 112.134C119.798 112.878 120.001 113.722 120.001 114.668H129.735C129.735 112.416 129.115 110.411 127.876 108.654C126.659 106.875 124.902 105.479 122.604 104.465C120.328 103.451 117.602 102.945 114.425 102.945C112.149 102.945 110.099 103.249 108.274 103.857C106.471 104.443 104.939 105.265 103.678 106.323C102.438 107.359 101.481 108.553 100.805 109.905C100.151 111.256 99.8248 112.697 99.8248 114.229C99.8248 115.783 100.151 117.169 100.805 118.385C101.458 119.579 102.36 120.615 103.509 121.493C104.68 122.372 106.055 123.126 107.632 123.757C109.232 124.365 110.955 124.872 112.803 125.277C114.853 125.683 116.419 126.133 117.5 126.629C118.604 127.102 119.359 127.62 119.765 128.183Z" fill="black"/>
<path d="M138.116 131.865C137.125 132.834 136.629 134.039 136.629 135.481C136.629 136.922 137.125 138.127 138.116 139.096C139.13 140.064 140.471 140.548 142.138 140.548C143.805 140.548 145.135 140.064 146.126 139.096C147.14 138.127 147.647 136.922 147.647 135.481C147.647 134.039 147.14 132.834 146.126 131.865C145.135 130.897 143.805 130.413 142.138 130.413C140.471 130.413 139.13 130.897 138.116 131.865Z" fill="black"/>
<path fill-rule="evenodd" clip-rule="evenodd" d="M-69.8322 123.556C-69.5618 124.254 -69.4266 125.042 -69.4266 125.921C-69.4266 127.024 -69.7083 128.015 -70.2715 128.894C-70.8123 129.772 -71.6572 130.459 -72.8063 130.955C-73.9328 131.45 -75.3748 131.698 -77.1322 131.698C-78.5742 131.698 -79.9035 131.552 -81.1202 131.259C-82.3144 130.966 -83.3508 130.493 -84.2295 129.84C-85.0857 129.187 -85.7503 128.331 -86.2235 127.272C-86.6966 126.213 -86.9332 124.918 -86.9332 123.387H-97.106C-97.106 126.157 -96.5314 128.556 -95.3823 130.583C-94.2333 132.61 -92.7011 134.277 -90.786 135.583C-88.8483 136.89 -86.6966 137.87 -84.3309 138.523C-81.9651 139.153 -79.5656 139.469 -77.1322 139.469C-74.4285 139.469 -71.9839 139.165 -69.7984 138.557C-67.6129 137.948 -65.7316 137.059 -64.1544 135.887C-62.5772 134.716 -61.3718 133.286 -60.5382 131.597C-59.7045 129.907 -59.2877 127.993 -59.2877 125.853C-59.2877 123.826 -59.6369 122.013 -60.3354 120.413C-61.0338 118.814 -62.0703 117.384 -63.4447 116.123C-64.819 114.861 -66.5314 113.724 -68.5817 112.71C-70.6095 111.697 -72.964 110.784 -75.6452 109.974C-77.2449 109.478 -78.6531 108.971 -79.8698 108.453C-81.0864 107.935 -82.1116 107.383 -82.9452 106.798C-83.7789 106.212 -84.4097 105.581 -84.8378 104.906C-85.2434 104.23 -85.4462 103.475 -85.4462 102.642C-85.4462 101.538 -85.1533 100.547 -84.5675 99.6688C-83.9817 98.7679 -83.1029 98.0583 -81.9313 97.5403C-80.7597 96.9997 -79.2952 96.7294 -77.5378 96.7294C-75.7128 96.7294 -74.2032 97.0448 -73.0091 97.6754C-71.7924 98.3061 -70.8912 99.1733 -70.3053 100.277C-69.697 101.358 -69.3928 102.619 -69.3928 104.061H-59.3215C-59.3215 101.133 -60.0763 98.5314 -61.5859 96.2564C-63.0729 93.9815 -65.1683 92.1908 -67.872 90.8845C-70.5757 89.5781 -73.7413 88.9249 -77.3688 88.9249C-80.0275 88.9249 -82.4721 89.2515 -84.7026 89.9047C-86.9107 90.5579 -88.8258 91.4926 -90.448 92.7089C-92.0703 93.9027 -93.332 95.3442 -94.2333 97.0335C-95.1345 98.7003 -95.5851 100.559 -95.5851 102.608C-95.5851 104.725 -95.157 106.584 -94.3008 108.183C-93.4221 109.782 -92.228 111.19 -90.7184 112.406C-89.1863 113.6 -87.4289 114.647 -85.4462 115.548C-83.4409 116.449 -81.323 117.26 -79.0924 117.981C-77.0872 118.612 -75.4537 119.22 -74.1919 119.805C-72.9302 120.391 -71.9501 120.988 -71.2516 121.596C-70.5532 122.182 -70.08 122.835 -69.8322 123.556ZM-43.5047 106.292V86.8977H-53.2381V138.793H-43.5047V112.643C-43.4086 112.469 -43.3072 112.3 -43.2006 112.136C-42.6148 111.212 -41.8374 110.492 -40.8686 109.974C-39.8772 109.455 -38.6831 109.196 -37.2862 109.196C-36.0244 109.196 -34.9655 109.399 -34.1093 109.805C-33.2306 110.188 -32.5659 110.852 -32.1153 111.798C-31.6422 112.721 -31.4056 113.994 -31.4056 115.616V138.793H-21.6046V115.683C-21.6046 113.116 -21.8975 110.931 -22.4833 109.129C-23.0691 107.327 -23.9028 105.874 -24.9843 104.771C-26.0432 103.644 -27.3162 102.833 -28.8033 102.338C-30.2678 101.82 -31.9013 101.561 -33.7038 101.561C-35.7766 101.561 -37.6692 102 -39.3816 102.878C-40.9632 103.701 -42.3376 104.839 -43.5047 106.292ZM5.92119 135.361C5.57575 135.761 5.19883 136.15 4.79044 136.529C3.84414 137.385 2.70633 138.095 1.37699 138.658C0.0476614 139.198 -1.5295 139.469 -3.35451 139.469C-5.6752 139.469 -7.78185 139.007 -9.67446 138.084C-11.5445 137.137 -13.0316 135.842 -14.1356 134.198C-15.2171 132.531 -15.7578 130.639 -15.7578 128.522C-15.7578 126.608 -15.3973 124.907 -14.6763 123.42C-13.9553 121.934 -12.8964 120.684 -11.4995 119.67C-10.08 118.634 -8.31133 117.857 -6.19342 117.339C-4.07551 116.798 -1.61962 116.528 1.17421 116.528H5.53396V114.264C5.53396 113.093 5.34245 112.091 4.95942 111.257C4.57639 110.402 3.97932 109.737 3.16821 109.264C2.37962 108.791 1.35447 108.555 0.0927269 108.555C-0.988761 108.555 -1.92379 108.746 -2.71238 109.129C-3.50097 109.489 -4.10931 110.019 -4.53739 110.717C-4.96548 111.393 -5.17952 112.192 -5.17952 113.116H-14.9129C-14.9129 111.561 -14.5524 110.086 -13.8314 108.69C-13.1104 107.293 -12.0627 106.066 -10.6884 105.007C-9.31396 103.926 -7.68046 103.081 -5.78786 102.473C-3.87273 101.865 -1.73228 101.561 0.633471 101.561C3.47238 101.561 5.99584 102.034 8.20388 102.98C10.4119 103.926 12.1468 105.345 13.4085 107.237C14.6928 109.129 15.3349 111.494 15.3349 114.332V129.975C15.3349 131.979 15.4589 133.624 15.7067 134.908C15.9545 136.169 16.315 137.273 16.7882 138.219V138.793H6.95341C6.51072 137.866 6.16665 136.722 5.92119 135.361ZM5.53396 128.461C5.41014 128.692 5.26368 128.926 5.09461 129.164C4.5088 130.02 3.67515 130.741 2.59367 131.326C1.51218 131.912 0.239182 132.205 -1.22534 132.205C-2.19416 132.205 -3.03908 132.025 -3.76007 131.664C-4.48107 131.281 -5.03307 130.763 -5.4161 130.11C-5.79913 129.434 -5.99064 128.68 -5.99064 127.846C-5.99064 127.013 -5.85545 126.247 -5.58508 125.549C-5.29218 124.851 -4.84156 124.243 -4.23322 123.724C-3.62489 123.184 -2.84757 122.767 -1.90127 122.474C-0.954964 122.182 0.16032 122.035 1.44459 122.035H5.53396V128.461ZM44.9347 134.895C43.89 136.249 42.6528 137.323 41.223 138.117C39.6008 139.018 37.7082 139.469 35.5452 139.469C33.2696 139.469 31.2418 139.007 29.4619 138.084C27.7045 137.16 26.2174 135.865 25.0007 134.198C23.8066 132.531 22.8941 130.572 22.2632 128.319C21.6324 126.067 21.3169 123.612 21.3169 120.954V120.244C21.3169 117.452 21.6324 114.918 22.2632 112.643C22.8941 110.345 23.8179 108.374 25.0345 106.73C26.2512 105.086 27.7495 103.813 29.5295 102.912C31.3094 102.011 33.3372 101.561 35.6128 101.561C37.7533 101.561 39.6233 102.011 41.223 102.912C42.4306 103.583 43.5008 104.466 44.4337 105.561V86.8977H54.2347V138.793H45.4138L44.9347 134.895ZM44.4337 113.142C44.1934 112.639 43.9118 112.179 43.5888 111.764C42.9805 110.953 42.2144 110.323 41.2906 109.872C40.3894 109.422 39.3192 109.196 38.08 109.196C36.8182 109.196 35.7367 109.489 34.8355 110.075C33.9343 110.638 33.202 111.415 32.6387 112.406C32.098 113.397 31.6924 114.568 31.4221 115.92C31.1742 117.249 31.0503 118.69 31.0503 120.244V120.954C31.0503 122.463 31.163 123.871 31.3883 125.177C31.6361 126.484 32.0304 127.644 32.5711 128.657C33.1344 129.648 33.8554 130.425 34.7341 130.988C35.6354 131.529 36.7281 131.799 38.0124 131.799C39.6797 131.799 41.0541 131.428 42.1356 130.684C43.1135 129.992 43.8795 129.069 44.4337 127.916V113.142ZM71.0315 138.117C73.2846 139.018 75.8306 139.469 78.6695 139.469C81.0353 139.469 83.1419 139.153 84.9895 138.523C86.837 137.87 88.4142 137.036 89.721 136.023C91.0503 135.009 92.098 133.95 92.8641 132.847L88.1326 127.711C87.0285 129.108 85.7105 130.155 84.1784 130.853C82.6688 131.529 81.0353 131.867 79.2779 131.867C77.8584 131.867 76.5854 131.619 75.4589 131.124C74.3549 130.628 73.4086 129.93 72.62 129.029C71.8539 128.128 71.2569 127.058 70.8288 125.819C70.5908 125.092 70.4226 124.326 70.3243 123.522H93.6752V119.467C93.6752 116.787 93.326 114.354 92.6275 112.17C91.929 109.962 90.8926 108.07 89.5182 106.494C88.1664 104.917 86.4878 103.701 84.4825 102.845C82.4773 101.989 80.1791 101.561 77.5881 101.561C74.9294 101.561 72.5411 102.023 70.4232 102.946C68.3053 103.847 66.5028 105.142 65.0158 106.831C63.5513 108.521 62.4247 110.514 61.6361 112.812C60.8475 115.109 60.4532 117.643 60.4532 120.413V121.765C60.4532 124.197 60.8701 126.495 61.7037 128.657C62.5374 130.797 63.7315 132.678 65.2861 134.299C66.8633 135.921 68.7784 137.194 71.0315 138.117ZM70.4426 117.035C70.4946 116.665 70.5557 116.305 70.626 115.954C70.9189 114.58 71.347 113.386 71.9103 112.372C72.4961 111.359 73.2508 110.57 74.1746 110.007C75.0984 109.444 76.2024 109.163 77.4867 109.163C78.9962 109.163 80.2354 109.478 81.2043 110.109C82.1731 110.739 82.8941 111.595 83.3673 112.676C83.8629 113.735 84.1108 114.94 84.1108 116.292V117.035H70.4426ZM118.38 126.799C118.786 127.362 118.989 127.993 118.989 128.691C118.989 129.479 118.763 130.178 118.313 130.786C117.885 131.371 117.254 131.844 116.42 132.205C115.587 132.543 114.539 132.712 113.277 132.712C112.106 132.712 111.013 132.531 109.999 132.171C109.008 131.811 108.185 131.225 107.532 130.414C106.901 129.603 106.563 128.533 106.518 127.204H97.2914C97.2914 129.187 97.8885 131.124 99.0826 133.016C100.299 134.885 102.079 136.428 104.422 137.644C106.788 138.861 109.672 139.469 113.074 139.469C115.418 139.469 117.524 139.198 119.394 138.658C121.287 138.095 122.909 137.318 124.261 136.327C125.613 135.313 126.649 134.131 127.37 132.779C128.091 131.428 128.452 129.941 128.452 128.319C128.452 125.932 127.843 124.006 126.627 122.542C125.41 121.055 123.765 119.884 121.692 119.028C119.62 118.15 117.265 117.44 114.629 116.9C113.345 116.652 112.263 116.382 111.385 116.089C110.528 115.773 109.83 115.436 109.289 115.075C108.748 114.715 108.354 114.321 108.106 113.893C107.881 113.442 107.768 112.935 107.768 112.372C107.768 111.629 107.971 110.953 108.377 110.345C108.805 109.715 109.413 109.219 110.202 108.859C110.99 108.476 111.925 108.284 113.007 108.284C114.314 108.284 115.373 108.509 116.184 108.96C117.017 109.388 117.626 109.985 118.009 110.751C118.414 111.494 118.617 112.339 118.617 113.285H128.35C128.35 111.032 127.731 109.028 126.492 107.271C125.275 105.491 123.517 104.095 121.219 103.081C118.944 102.068 116.217 101.561 113.041 101.561C110.765 101.561 108.715 101.865 106.89 102.473C105.087 103.059 103.555 103.881 102.293 104.939C101.054 105.976 100.097 107.169 99.4206 108.521C98.7672 109.872 98.4405 111.314 98.4405 112.845C98.4405 114.4 98.7672 115.785 99.4206 117.001C100.074 118.195 100.975 119.231 102.124 120.109C103.296 120.988 104.67 121.742 106.247 122.373C107.847 122.981 109.571 123.488 111.418 123.893C113.469 124.299 115.035 124.749 116.116 125.245C117.22 125.718 117.975 126.236 118.38 126.799ZM136.732 130.482C135.741 131.45 135.245 132.655 135.245 134.097C135.245 135.538 135.741 136.743 136.732 137.712C137.746 138.68 139.086 139.165 140.754 139.165C142.421 139.165 143.75 138.68 144.742 137.712C145.756 136.743 146.263 135.538 146.263 134.097C146.263 132.655 145.756 131.45 144.742 130.482C143.75 129.513 142.421 129.029 140.754 129.029C139.086 129.029 137.746 129.513 136.732 130.482Z" fill="#F8EB7A"/>
<path d="M109.762 101.794C108.749 101.946 107.792 102.172 106.89 102.473C105.087 103.059 103.555 103.881 102.293 104.939C101.054 105.976 100.097 107.169 99.4206 108.521C98.7672 109.872 98.4405 111.314 98.4405 112.845C98.4405 114.4 98.7672 115.785 99.4206 117.001C99.9457 117.961 100.631 118.818 101.476 119.574C102.026 118.465 102.548 117.352 103.037 116.241C103.418 115.591 103.785 114.918 104.132 114.224C105.074 112.34 105.717 110.534 106.124 109.332C106.333 108.714 106.527 108.107 106.679 107.634L106.688 107.607C106.854 107.087 106.977 106.707 107.098 106.347C107.152 106.187 107.198 106.052 107.238 105.939C108.026 104.935 108.973 103.543 109.762 101.794Z" fill="#9EFC7D"/>
<path d="M32.8345 139.229C33.6952 139.389 34.5988 139.469 35.5453 139.469C37.7082 139.469 39.6008 139.018 41.2231 138.117C42.6528 137.323 43.89 136.249 44.9347 134.895L45.4138 138.793H54.2347V93.7886C52.0734 97.0083 50.3205 100.305 48.9131 103.432C48.1194 105.195 47.3261 106.958 46.533 108.721C46.2619 109.324 45.9907 109.927 45.7196 110.53L45.7174 110.535C45.3082 111.444 44.8991 112.354 44.49 113.263C44.4713 113.305 44.4525 113.346 44.4337 113.388V127.916C43.8795 129.069 43.1135 129.992 42.1356 130.684C41.0541 131.428 39.6797 131.799 38.0124 131.799C37.3679 131.799 36.7717 131.731 36.2237 131.595C35.2969 133.642 34.369 135.688 33.4396 137.732C33.2166 138.222 33.0155 138.726 32.8345 139.229Z" fill="#9EFC7D"/>
<path fill-rule="evenodd" clip-rule="evenodd" d="M71.0316 138.117C73.2847 139.018 75.8307 139.469 78.6696 139.469C81.0353 139.469 83.142 139.153 84.9895 138.523C86.837 137.87 88.4142 137.036 89.721 136.023C91.0503 135.009 92.098 133.95 92.8641 132.847L88.1326 127.711C87.0286 129.108 85.7105 130.155 84.1784 130.853C82.6688 131.529 81.0353 131.867 79.2779 131.867C77.8584 131.867 76.5854 131.619 75.4589 131.124C74.3549 130.628 73.4086 129.93 72.62 129.029C71.8539 128.128 71.2569 127.058 70.8288 125.819C70.5908 125.092 70.4226 124.326 70.3243 123.522H93.6752V119.467C93.6752 116.787 93.326 114.355 92.6275 112.17C91.929 109.962 90.8926 108.07 89.5182 106.494C88.1664 104.917 86.4878 103.701 84.4826 102.845C82.4773 101.989 80.1791 101.561 77.5881 101.561C74.9294 101.561 72.5411 102.023 70.4232 102.946C68.3053 103.847 66.5028 105.142 65.0158 106.831C63.5513 108.521 62.4247 110.514 61.6361 112.812C60.8476 115.109 60.4533 117.643 60.4533 120.413V121.765C60.4533 124.197 60.8701 126.495 61.7037 128.657C62.5374 130.797 63.7315 132.678 65.2862 134.3C66.8633 135.921 68.7785 137.194 71.0316 138.117ZM70.4426 117.035C70.4946 116.665 70.5557 116.305 70.626 115.954C70.9189 114.58 71.347 113.386 71.9103 112.372C72.4961 111.359 73.2509 110.57 74.1746 110.007C75.0984 109.444 76.2024 109.163 77.4867 109.163C78.9963 109.163 80.2355 109.478 81.2043 110.109C82.1731 110.739 82.8941 111.595 83.3673 112.676C83.863 113.735 84.1108 114.94 84.1108 116.292V117.035H70.4426Z" fill="#9EFC7D"/>
<path d="M71.3799 138.252C73.5461 139.063 75.9761 139.469 78.6697 139.469C81.0354 139.469 83.1421 139.153 84.9896 138.523C86.8372 137.869 88.4143 137.036 89.7211 136.023C91.0505 135.009 92.0981 133.95 92.8642 132.847L88.1327 127.711C87.0287 129.108 85.7106 130.155 84.1785 130.853C82.6689 131.529 81.0354 131.867 79.278 131.867C78.4227 131.867 77.6205 131.777 76.8715 131.597C76.4942 132.088 76.1419 132.552 75.8248 132.97C75.6543 133.195 75.494 133.406 75.3454 133.601C74.1722 135.14 73.4241 136.071 72.785 136.755C72.7336 136.81 72.6669 136.88 72.4925 137.062L72.4759 137.079C72.3298 137.231 72.0954 137.475 71.85 137.738C71.7153 137.883 71.5565 138.055 71.3799 138.252Z" fill="#7DF2EB"/>
<path d="M84.0689 123.522C84.2592 123.34 84.4488 123.161 84.637 122.985C85.261 117.409 86.7183 111.799 88.5971 106.732C88.7056 106.439 88.8166 106.145 88.9299 105.851C89.1325 106.058 89.3286 106.272 89.5183 106.494C90.8927 108.07 91.9292 109.962 92.6276 112.17C93.3261 114.354 93.6753 116.787 93.6753 119.467V123.522H84.0689Z" fill="#7DF2EB"/>
<path d="M118.381 126.799C118.786 127.362 118.989 127.993 118.989 128.691C118.989 129.479 118.764 130.178 118.313 130.786C117.885 131.371 117.254 131.844 116.42 132.205C115.587 132.543 114.539 132.711 113.277 132.711C112.106 132.711 111.013 132.531 109.999 132.171C109.008 131.811 108.185 131.225 107.532 130.414C106.901 129.603 106.563 128.533 106.518 127.204H97.2915C97.2915 129.186 97.8886 131.124 99.0827 133.016C100.299 134.885 102.079 136.428 104.423 137.644C106.788 138.861 109.672 139.469 113.074 139.469C115.418 139.469 117.524 139.198 119.394 138.658C121.287 138.095 122.909 137.318 124.261 136.327C125.613 135.313 126.649 134.131 127.37 132.779C128.091 131.428 128.452 129.941 128.452 128.319C128.452 125.932 127.844 124.006 126.627 122.542C125.41 121.055 123.765 119.884 121.693 119.028C119.62 118.15 117.265 117.44 114.629 116.9C113.345 116.652 112.263 116.382 111.385 116.089C110.528 115.773 109.83 115.436 109.289 115.075C108.749 114.715 108.354 114.321 108.106 113.893C107.881 113.442 107.768 112.935 107.768 112.372C107.768 111.629 107.971 110.953 108.377 110.345C108.805 109.714 109.413 109.219 110.202 108.859C110.99 108.476 111.925 108.284 113.007 108.284C114.314 108.284 115.373 108.509 116.184 108.96C117.017 109.388 117.626 109.985 118.009 110.751C118.414 111.494 118.617 112.339 118.617 113.285H128.35C128.35 111.032 127.731 109.027 126.492 107.271C125.275 105.491 123.518 104.095 121.219 103.081C118.944 102.068 116.218 101.561 113.041 101.561C110.765 101.561 108.715 101.865 106.89 102.473C105.087 103.059 103.555 103.881 102.293 104.939C101.054 105.975 100.097 107.169 99.4207 108.521C98.7673 109.872 98.4406 111.314 98.4406 112.845C98.4406 114.399 98.7673 115.785 99.4207 117.001C100.074 118.195 100.975 119.231 102.124 120.109C103.296 120.988 104.67 121.742 106.248 122.373C107.847 122.981 109.571 123.488 111.418 123.893C113.469 124.299 115.035 124.749 116.116 125.245C117.22 125.718 117.975 126.236 118.381 126.799Z" fill="#7DF2EB"/>
<path d="M136.732 130.482C135.741 131.45 135.245 132.655 135.245 134.097C135.245 135.538 135.741 136.743 136.732 137.712C137.746 138.68 139.087 139.165 140.754 139.165C142.421 139.165 143.75 138.68 144.742 137.712C145.756 136.743 146.263 135.538 146.263 134.097C146.263 132.655 145.756 131.45 144.742 130.482C143.75 129.513 142.421 129.029 140.754 129.029C139.087 129.029 137.746 129.513 136.732 130.482Z" fill="#7DF2EB"/>
</g>
<g clip-path="url(#clip1_31_144)">
<path d="M50.7536 66.6591C51.0238 67.3573 51.1589 68.1457 51.1589 69.0241C51.1589 70.1278 50.8774 71.1189 50.3145 71.9973C49.774 72.8758 48.9296 73.5628 47.7811 74.0583C46.6552 74.5538 45.214 74.8016 43.4576 74.8016C42.0164 74.8016 40.6878 74.6552 39.4718 74.3624C38.2783 74.0696 37.2425 73.5966 36.3642 72.9434C35.5085 72.2901 34.8442 71.4343 34.3713 70.3756C33.8985 69.3169 33.662 68.0219 33.662 66.4901H23.4949C23.4949 69.2606 24.0691 71.6595 25.2175 73.6867C26.366 75.7139 27.8973 77.3807 29.8113 78.6871C31.748 79.9934 33.8985 80.9732 36.2629 81.6265C38.6273 82.2571 41.0256 82.5725 43.4576 82.5725C46.1598 82.5725 48.6031 82.2684 50.7874 81.6603C52.9716 81.0521 54.852 80.1624 56.4283 78.9911C58.0045 77.8199 59.2094 76.3896 60.0425 74.7003C60.8756 73.0109 61.2923 71.0964 61.2923 68.9566C61.2923 66.9294 60.9432 65.1162 60.2452 63.5169C59.5472 61.9176 58.5112 60.4875 57.1376 59.226C55.764 57.9646 54.0525 56.8272 52.0034 55.8136C49.9767 54.8 47.6236 53.8878 44.9438 53.0769C43.3449 52.5814 41.9376 52.0746 40.7216 51.5565C39.5056 51.0384 38.4809 50.4867 37.6478 49.901C36.8147 49.3153 36.184 48.6847 35.7562 48.0089C35.3509 47.3332 35.1482 46.5786 35.1482 45.7452C35.1482 44.6416 35.4409 43.6505 36.0265 42.772C36.612 41.8711 37.4902 41.1616 38.6611 40.6435C39.832 40.1029 41.2958 39.8326 43.0522 39.8326C44.8763 39.8326 46.3849 40.148 47.5785 40.7786C48.7945 41.4092 49.6952 42.2765 50.2807 43.3802C50.8887 44.4614 51.1927 45.7228 51.1927 47.1643H61.2585C61.2585 44.2362 60.5041 41.6346 58.9954 39.3596C57.5092 37.0846 55.4149 35.2939 52.7127 33.9875C50.0105 32.6812 46.8467 32.0279 43.2211 32.0279C40.564 32.0279 38.1207 32.3545 35.8913 33.0077C33.6845 33.661 31.7704 34.5957 30.1491 35.812C28.5278 37.0059 27.2667 38.4474 26.366 40.1367C25.4653 41.8035 25.0149 43.6618 25.0149 45.7115C25.0149 47.8287 25.4427 49.6869 26.2984 51.2862C27.1767 52.8855 28.3702 54.2932 29.8789 55.5095C31.4102 56.7034 33.1667 57.7508 35.1482 58.6517C37.1524 59.5526 39.2691 60.3635 41.4985 61.0843C43.5027 61.7149 45.1352 62.3231 46.3963 62.9088C47.6573 63.4945 48.6369 64.0913 49.3349 64.6995C50.0329 65.2851 50.5058 65.9382 50.7536 66.6591Z" fill="black"/>
<path d="M77.0665 49.3955V30.0007H67.3385V81.8968H77.0665V55.7467C77.1626 55.5724 77.264 55.4033 77.3705 55.2392C77.9561 54.3157 78.733 53.595 79.7012 53.0769C80.6921 52.5588 81.8855 52.2998 83.2817 52.2998C84.5428 52.2998 85.601 52.5025 86.4568 52.908C87.335 53.2909 87.9992 53.9554 88.4497 54.9014C88.9226 55.8249 89.159 57.0975 89.159 58.7192V81.8968H98.9546V58.7868C98.9546 56.219 98.6619 54.0342 98.0764 52.2322C97.4908 50.4302 96.6577 48.9774 95.5768 47.8738C94.5184 46.7475 93.2461 45.9366 91.7599 45.4412C90.2961 44.923 88.6637 44.6641 86.8621 44.6641C84.7904 44.6641 82.8988 45.1033 81.1874 45.9817C79.6066 46.8039 78.2331 47.9419 77.0665 49.3955Z" fill="black"/>
<path fill-rule="evenodd" clip-rule="evenodd" d="M126.465 78.4642C126.12 78.8643 125.743 79.254 125.335 79.6331C124.389 80.4891 123.252 81.1986 121.924 81.7616C120.595 82.3022 119.019 82.5725 117.195 82.5725C114.875 82.5725 112.77 82.1108 110.878 81.1873C109.009 80.2412 107.523 78.946 106.419 77.3018C105.339 75.635 104.798 73.7429 104.798 71.6257C104.798 69.7112 105.158 68.0105 105.879 66.5239C106.6 65.0373 107.658 63.7872 109.054 62.7736C110.473 61.7376 112.241 60.9605 114.357 60.4424C116.474 59.9018 118.929 59.6315 121.721 59.6315H126.078V57.3678C126.078 56.1966 125.887 55.1941 125.504 54.3608C125.121 53.5048 124.524 52.8404 123.714 52.3674C122.926 51.8944 121.901 51.6579 120.64 51.6579C119.559 51.6579 118.625 51.8493 117.836 52.2322C117.048 52.5926 116.44 53.122 116.012 53.8202C115.585 54.4959 115.371 55.2955 115.371 56.219H105.643C105.643 54.6649 106.003 53.1896 106.723 51.793C107.444 50.3965 108.491 49.169 109.865 48.1103C111.238 47.0291 112.871 46.1845 114.763 45.5763C116.677 44.9681 118.816 44.6641 121.18 44.6641C124.018 44.6641 126.54 45.1371 128.747 46.0831C130.954 47.0291 132.687 48.4482 133.948 50.3402C135.232 52.2322 135.874 54.5973 135.874 57.4354V73.0785C135.874 75.0832 135.998 76.7274 136.245 78.0113C136.493 79.2728 136.853 80.3764 137.326 81.3224V81.8968H127.497C127.054 80.9695 126.711 79.8253 126.465 78.4642ZM126.078 71.5644C125.954 71.7953 125.808 72.0298 125.639 72.2676C125.054 73.1236 124.22 73.8443 123.14 74.43C122.059 75.0157 120.786 75.3084 119.323 75.3084C118.354 75.3084 117.51 75.1282 116.789 74.7678C116.069 74.3849 115.517 73.8669 115.134 73.2137C114.751 72.5379 114.56 71.7833 114.56 70.95C114.56 70.1166 114.695 69.3507 114.965 68.6525C115.258 67.9543 115.708 67.3461 116.316 66.828C116.924 66.2874 117.701 65.8707 118.647 65.5779C119.593 65.2851 120.708 65.1387 121.991 65.1387H126.078V71.5644Z" fill="black"/>
<path fill-rule="evenodd" clip-rule="evenodd" d="M165.457 77.999C164.413 79.353 163.177 80.4271 161.748 81.2211C160.126 82.122 158.235 82.5725 156.073 82.5725C153.798 82.5725 151.772 82.1108 149.993 81.1873C148.236 80.2637 146.75 78.9687 145.534 77.3018C144.341 75.635 143.429 73.6753 142.798 71.423C142.168 69.1706 141.852 66.7153 141.852 64.0575V63.348C141.852 60.555 142.168 58.0211 142.798 55.746C143.429 53.4486 144.352 51.4776 145.568 49.8334C146.784 48.1892 148.282 46.9164 150.06 46.0155C151.839 45.1146 153.866 44.6641 156.14 44.6641C158.28 44.6641 160.149 45.1146 161.748 46.0155C162.954 46.6862 164.024 47.569 164.956 48.6641V30.0007H174.752V81.8968H165.936L165.457 77.999ZM164.956 56.2459C164.716 55.7422 164.435 55.2828 164.112 54.8676C163.504 54.0567 162.738 53.4261 161.815 52.9755C160.914 52.525 159.845 52.2998 158.606 52.2998C157.345 52.2998 156.264 52.5926 155.364 53.1783C154.463 53.7413 153.731 54.5184 153.168 55.5095C152.628 56.5007 152.222 57.6719 151.952 59.0233C151.704 60.3523 151.58 61.7938 151.58 63.348V64.0575C151.58 65.5666 151.693 66.9745 151.918 68.2808C152.166 69.5872 152.56 70.7472 153.1 71.7608C153.663 72.752 154.384 73.5291 155.262 74.0921C156.163 74.6327 157.255 74.903 158.539 74.903C160.205 74.903 161.579 74.5313 162.66 73.788C163.637 73.0956 164.403 72.173 164.956 71.0201V56.2459Z" fill="black"/>
<path fill-rule="evenodd" clip-rule="evenodd" d="M191.54 81.2211C193.791 82.122 196.336 82.5725 199.173 82.5725C201.538 82.5725 203.643 82.2571 205.49 81.6265C207.336 80.9732 208.913 80.1399 210.219 79.1263C211.547 78.1127 212.595 77.054 213.36 75.9504L208.631 70.8148C207.528 72.2114 206.211 73.2588 204.679 73.957C203.171 74.6327 201.538 74.9706 199.781 74.9706C198.363 74.9706 197.091 74.7227 195.965 74.2272C194.861 73.7318 193.915 73.0334 193.127 72.1325C192.362 71.2316 191.765 70.1616 191.337 68.9228C191.099 68.1957 190.931 67.4299 190.833 66.6253H214.171V62.5709C214.171 59.8905 213.822 57.4578 213.124 55.273C212.426 53.0656 211.39 51.1735 210.016 49.5969C208.665 48.0203 206.987 46.8039 204.983 45.948C202.979 45.092 200.682 44.6641 198.093 44.6641C195.435 44.6641 193.048 45.1258 190.932 46.0493C188.815 46.9502 187.013 48.2454 185.527 49.9348C184.063 51.6241 182.938 53.6175 182.149 55.915C181.361 58.2125 180.967 60.7464 180.967 63.5169V64.8684C180.967 67.301 181.384 69.5985 182.217 71.7608C183.05 73.9007 184.244 75.7814 185.797 77.4032C187.374 79.0249 189.288 80.2975 191.54 81.2211ZM190.951 60.1383C191.003 59.7688 191.064 59.4083 191.134 59.0571C191.427 57.6832 191.855 56.4893 192.418 55.4757C193.003 54.4622 193.758 53.6737 194.681 53.1107C195.604 52.5476 196.708 52.266 197.991 52.266C199.5 52.266 200.739 52.5814 201.707 53.2121C202.675 53.8427 203.396 54.6987 203.869 55.7798C204.364 56.8385 204.612 58.0435 204.612 59.395V60.1383H190.951Z" fill="black"/>
<path d="M238.862 69.9026C239.268 70.4656 239.47 71.0964 239.47 71.7946C239.47 72.583 239.245 73.2812 238.795 73.8894C238.367 74.4751 237.736 74.9481 236.903 75.3084C236.07 75.6463 235.023 75.8152 233.762 75.8152C232.591 75.8152 231.499 75.635 230.486 75.2746C229.495 74.9143 228.673 74.3286 228.02 73.5177C227.389 72.7069 227.051 71.637 227.006 70.308H217.785C217.785 72.2901 218.382 74.2272 219.575 76.1193C220.791 77.9889 222.57 79.5317 224.912 80.748C227.277 81.9644 230.159 82.5725 233.559 82.5725C235.901 82.5725 238.007 82.3022 239.876 81.7616C241.767 81.1986 243.389 80.4215 244.74 79.4304C246.091 78.4168 247.127 77.2342 247.847 75.8828C248.568 74.5313 248.928 73.0447 248.928 71.423C248.928 69.0354 248.32 67.1096 247.104 65.6455C245.888 64.1589 244.244 62.9877 242.173 62.1317C240.101 61.2532 237.748 60.5437 235.113 60.0031C233.83 59.7553 232.749 59.485 231.87 59.1923C231.015 58.8769 230.317 58.539 229.776 58.1787C229.236 57.8183 228.842 57.424 228.594 56.9961C228.369 56.5456 228.256 56.0388 228.256 55.4757C228.256 54.7324 228.459 54.0567 228.864 53.4486C229.292 52.8179 229.9 52.3223 230.688 51.962C231.476 51.579 232.411 51.3876 233.492 51.3876C234.798 51.3876 235.856 51.6128 236.667 52.0633C237.5 52.4912 238.108 53.0882 238.491 53.854C238.896 54.5973 239.099 55.442 239.099 56.388H248.827C248.827 54.1356 248.208 52.1309 246.969 50.374C245.753 48.5946 243.997 47.1981 241.7 46.1845C239.425 45.1709 236.701 44.6641 233.526 44.6641C231.251 44.6641 229.202 44.9681 227.378 45.5763C225.576 46.162 224.045 46.984 222.784 48.0427C221.546 49.0788 220.589 50.2726 219.913 51.6241C219.26 52.9755 218.933 54.417 218.933 55.9488C218.933 57.5029 219.26 58.8882 219.913 60.1045C220.566 61.2983 221.467 62.3344 222.615 63.2129C223.786 64.0913 225.16 64.8459 226.736 65.4765C228.335 66.0847 230.058 66.5915 231.904 66.9969C233.953 67.4024 235.518 67.8529 236.599 68.3484C237.703 68.8214 238.457 69.3395 238.862 69.9026Z" fill="black"/>
<path d="M257.204 73.5853C256.213 74.5538 255.718 75.759 255.718 77.2005C255.718 78.642 256.213 79.8471 257.204 80.8156C258.217 81.7841 259.557 82.2684 261.223 82.2684C262.89 82.2684 264.218 81.7841 265.209 80.8156C266.222 79.8471 266.729 78.642 266.729 77.2005C266.729 75.759 266.222 74.5538 265.209 73.5853C264.218 72.6168 262.89 72.1325 261.223 72.1325C259.557 72.1325 258.217 72.6168 257.204 73.5853Z" fill="black"/>
<path fill-rule="evenodd" clip-rule="evenodd" d="M49.3701 65.2753C49.6403 65.9735 49.7754 66.7619 49.7754 67.6403C49.7754 68.744 49.4939 69.7351 48.9309 70.6136C48.3905 71.492 47.546 72.179 46.3976 72.6745C45.2717 73.1701 43.8305 73.4178 42.074 73.4178C40.6328 73.4178 39.3043 73.2714 38.0882 72.9786C36.8948 72.6858 35.8589 72.2128 34.9807 71.5596C34.125 70.9064 33.4607 70.0504 32.9878 68.9918C32.5149 67.9332 32.2785 66.638 32.2785 65.1064H22.1113C22.1113 67.8768 22.6856 70.2757 23.834 72.3029C24.9824 74.3301 26.5137 75.9969 28.4278 77.3033C30.3644 78.6097 32.5149 79.5895 34.8794 80.2427C37.2438 80.8734 39.642 81.1887 42.074 81.1887C44.7763 81.1887 47.2195 80.8846 49.4038 80.2765C51.5881 79.6683 53.4684 78.7786 55.0447 77.6074C56.621 76.4361 57.8258 75.0058 58.659 73.3165C59.4921 71.6271 59.9087 69.7126 59.9087 67.5728C59.9087 65.5456 59.5597 63.7324 58.8616 62.1331C58.1636 60.5339 57.1277 59.1036 55.7541 57.8423C54.3804 56.5809 52.669 55.4434 50.6198 54.4298C48.5932 53.4162 46.24 52.504 43.5603 51.6931C41.9614 51.1976 40.554 50.6908 39.338 50.1727C38.122 49.6547 37.0974 49.1028 36.2642 48.5172C35.4311 47.9316 34.8005 47.3009 34.3727 46.6251C33.9674 45.9494 33.7647 45.1948 33.7647 44.3614C33.7647 43.2578 34.0574 42.2667 34.6429 41.3882C35.2284 40.4873 36.1066 39.7777 37.2776 39.2597C38.4485 38.7191 39.9123 38.4488 41.6687 38.4488C43.4927 38.4488 45.0014 38.7642 46.1949 39.3948C47.4109 40.0255 48.3117 40.8927 48.8972 41.9964C49.5052 43.0776 49.8092 44.3389 49.8092 45.7805H59.875C59.875 42.8523 59.1206 40.2508 57.6118 37.9758C56.1256 35.7008 54.0314 33.9102 51.3292 32.6037C48.6269 31.2973 45.4631 30.6441 41.8376 30.6441C39.1804 30.6441 36.7371 30.9707 34.5078 31.6239C32.301 32.2771 30.3869 33.2119 28.7656 34.4282C27.1442 35.622 25.8832 37.0636 24.9824 38.7529C24.0817 40.4197 23.6313 42.2779 23.6313 44.3277C23.6313 46.4449 24.0592 48.3032 24.9149 49.9024C25.7931 51.5017 26.9866 52.9094 28.4953 54.1257C30.0266 55.3195 31.7831 56.3669 33.7647 57.2679C35.7688 58.1689 37.8856 58.9797 40.1149 59.7005C42.1191 60.3312 43.7517 60.9394 45.0127 61.525C46.2737 62.1106 47.2533 62.7075 47.9514 63.3157C48.6495 63.9013 49.1223 64.5545 49.3701 65.2753ZM75.683 48.0118V28.6169H65.955V80.513H75.683V54.363C75.7791 54.1886 75.8804 54.0194 75.987 53.8555C76.5725 52.932 77.3494 52.2112 78.3177 51.6931C79.3085 51.1751 80.502 50.916 81.8981 50.916C83.1592 50.916 84.2175 51.1187 85.0732 51.5242C85.9515 51.9071 86.6158 52.5716 87.0661 53.5176C87.539 54.4411 87.7755 55.7137 87.7755 57.3355V80.513H97.571V57.403C97.571 54.8353 97.2783 52.6504 96.6928 50.8485C96.1073 49.0465 95.2741 47.5937 94.1933 46.49C93.1349 45.3638 91.8626 44.5529 90.3764 44.0574C88.9127 43.5393 87.2801 43.2803 85.4786 43.2803C83.4069 43.2803 81.5153 43.7195 79.8039 44.598C78.2231 45.4202 76.8495 46.5581 75.683 48.0118ZM125.082 77.0805C124.736 77.4806 124.36 77.8702 123.952 78.2493C123.006 79.1052 121.869 79.8147 120.54 80.3778C119.211 80.9184 117.635 81.1887 115.811 81.1887C113.492 81.1887 111.386 80.727 109.495 79.8035C107.626 78.8575 106.139 77.5623 105.036 75.918C103.955 74.2512 103.415 72.3592 103.415 70.2419C103.415 68.3273 103.775 66.6267 104.495 65.1401C105.216 63.6535 106.274 62.4034 107.671 61.3898C109.089 60.3537 110.857 59.5766 112.974 59.0586C115.09 58.518 117.545 58.2477 120.337 58.2477H124.695V55.984C124.695 54.8127 124.503 53.8104 124.12 52.977C123.738 52.1211 123.141 51.4566 122.33 50.9836C121.542 50.5106 120.517 50.2741 119.256 50.2741C118.176 50.2741 117.241 50.4655 116.453 50.8485C115.665 51.2088 115.057 51.7382 114.629 52.4364C114.201 53.1121 113.987 53.9118 113.987 54.8353H104.259C104.259 53.2811 104.619 51.8057 105.34 50.4092C106.061 49.0127 107.108 47.7851 108.481 46.7265C109.855 45.6453 111.488 44.8007 113.379 44.1925C115.293 43.5844 117.432 43.2803 119.797 43.2803C122.634 43.2803 125.156 43.7533 127.363 44.6993C129.57 45.6453 131.304 47.0644 132.565 48.9564C133.848 50.8485 134.49 53.2135 134.49 56.0516V71.6947C134.49 73.6994 134.614 75.3437 134.862 76.6275C135.109 77.8889 135.47 78.9926 135.943 79.9386V80.513H126.113C125.671 79.5857 125.327 78.4416 125.082 77.0805ZM124.695 70.1806C124.571 70.4115 124.425 70.646 124.256 70.8838C123.67 71.7398 122.837 72.4605 121.756 73.0462C120.675 73.6318 119.403 73.9246 117.939 73.9246C116.971 73.9246 116.126 73.7444 115.406 73.384C114.685 73.0011 114.133 72.4831 113.751 71.8299C113.368 71.1541 113.176 70.3996 113.176 69.5662C113.176 68.7328 113.312 67.9669 113.582 67.2687C113.874 66.5704 114.325 65.9623 114.933 65.4442C115.541 64.9036 116.318 64.4869 117.264 64.1941C118.209 63.9013 119.324 63.7549 120.608 63.7549H124.695V70.1806ZM164.074 76.6153C163.03 77.9692 161.793 79.0432 160.364 79.8373C158.743 80.7382 156.851 81.1887 154.689 81.1887C152.415 81.1887 150.388 80.727 148.609 79.8035C146.853 78.88 145.367 77.5848 144.151 75.918C142.957 74.2512 142.045 72.2916 141.415 70.0392C140.784 67.7867 140.469 65.3316 140.469 62.6737V61.9642C140.469 59.1712 140.784 56.6372 141.415 54.3622C142.045 52.0648 142.968 50.0939 144.184 48.4496C145.4 46.8053 146.898 45.5327 148.677 44.6317C150.456 43.7308 152.483 43.2803 154.757 43.2803C156.896 43.2803 158.765 43.7308 160.364 44.6317C161.571 45.3024 162.641 46.1852 163.573 47.2802V28.6169H173.369V80.513H164.553L164.074 76.6153ZM163.573 54.862C163.333 54.3583 163.051 53.8989 162.729 53.4838C162.121 52.6729 161.355 52.0422 160.432 51.5918C159.531 51.1413 158.461 50.916 157.223 50.916C155.962 50.916 154.881 51.2088 153.98 51.7945C153.079 52.3576 152.347 53.1347 151.784 54.1257C151.244 55.1168 150.839 56.2881 150.568 57.6395C150.321 58.9685 150.197 60.41 150.197 61.9642V62.6737C150.197 64.1829 150.31 65.5906 150.535 66.897C150.782 68.2034 151.176 69.3635 151.717 70.377C152.28 71.3681 153 72.1452 153.879 72.7083C154.779 73.2489 155.872 73.5192 157.155 73.5192C158.822 73.5192 160.195 73.1475 161.276 72.4042C162.253 71.7118 163.019 70.7891 163.573 69.6362V54.862ZM190.156 79.8373C192.408 80.7382 194.953 81.1887 197.79 81.1887C200.154 81.1887 202.26 80.8734 204.106 80.2427C205.953 79.5895 207.529 78.7561 208.835 77.7425C210.164 76.7289 211.211 75.6703 211.977 74.5666L207.248 69.431C206.144 70.8275 204.827 71.8749 203.296 72.5732C201.787 73.2489 200.154 73.5868 198.398 73.5868C196.979 73.5868 195.707 73.339 194.581 72.8435C193.478 72.3479 192.532 71.6497 191.744 70.7487C190.978 69.8477 190.381 68.7778 189.953 67.539C189.716 66.8119 189.547 66.0461 189.449 65.2415H212.787V61.1871C212.787 58.5067 212.438 56.0741 211.74 53.8892C211.042 51.6819 210.006 49.7898 208.633 48.2131C207.281 46.6364 205.604 45.4201 203.6 44.5642C201.596 43.7082 199.299 43.2803 196.709 43.2803C194.052 43.2803 191.665 43.742 189.548 44.6655C187.431 45.5665 185.63 46.8616 184.144 48.551C182.68 50.2403 181.554 52.2337 180.766 54.5312C179.978 56.8287 179.584 59.3627 179.584 62.1331V63.4846C179.584 65.9172 180 68.2147 180.833 70.377C181.667 72.5169 182.86 74.3976 184.414 76.0194C185.99 77.6411 187.904 78.9138 190.156 79.8373ZM189.567 58.7545C189.619 58.385 189.681 58.0246 189.751 57.6733C190.044 56.2993 190.471 55.1056 191.034 54.092C191.62 53.0784 192.374 52.29 193.297 51.7269C194.221 51.1638 195.324 50.8822 196.608 50.8822C198.116 50.8822 199.355 51.1976 200.323 51.8283C201.292 52.4589 202.012 53.3149 202.485 54.396C202.98 55.4547 203.228 56.6597 203.228 58.0112V58.7545H189.567ZM237.479 68.5188C237.884 69.0819 238.087 69.7126 238.087 70.4108C238.087 71.1992 237.862 71.8974 237.411 72.5056C236.983 73.0912 236.353 73.5642 235.52 73.9246C234.687 74.2625 233.639 74.4314 232.378 74.4314C231.207 74.4314 230.115 74.2512 229.102 73.8908C228.111 73.5305 227.289 72.9448 226.636 72.1339C226.006 71.3231 225.668 70.2532 225.623 68.9242H216.402C216.402 70.9064 216.998 72.8435 218.192 74.7355C219.408 76.605 221.187 78.1479 223.529 79.3643C225.893 80.5806 228.775 81.1887 232.176 81.1887C234.518 81.1887 236.623 80.9184 238.492 80.3778C240.384 79.8147 242.005 79.0376 243.356 78.0466C244.707 77.033 245.743 75.8505 246.464 74.499C247.184 73.1475 247.545 71.6609 247.545 70.0392C247.545 67.6516 246.937 65.7258 245.721 64.2617C244.505 62.7751 242.861 61.6038 240.789 60.7479C238.717 59.8694 236.364 59.1599 233.73 58.6193C232.446 58.3716 231.365 58.1013 230.487 57.8085C229.631 57.4931 228.933 57.1553 228.393 56.7949C227.852 56.4345 227.458 56.0403 227.21 55.6123C226.985 55.1619 226.873 54.6551 226.873 54.092C226.873 53.3487 227.075 52.6729 227.481 52.0648C227.909 51.4341 228.517 50.9386 229.305 50.5782C230.093 50.1952 231.027 50.0038 232.108 50.0038C233.414 50.0038 234.473 50.229 235.283 50.6795C236.117 51.1075 236.725 51.7044 237.107 52.4702C237.513 53.2135 237.715 54.0582 237.715 55.0042H247.443C247.443 52.7518 246.824 50.7471 245.586 48.9902C244.37 47.2108 242.613 45.8143 240.316 44.8007C238.042 43.7871 235.317 43.2803 232.142 43.2803C229.868 43.2803 227.818 43.5844 225.994 44.1925C224.193 44.7781 222.662 45.6003 221.401 46.6589C220.162 47.695 219.205 48.8888 218.53 50.2403C217.876 51.5918 217.55 53.0333 217.55 54.565C217.55 56.1191 217.876 57.5044 218.53 58.7207C219.183 59.9145 220.083 60.9506 221.232 61.8291C222.403 62.7075 223.776 63.4621 225.353 64.0928C226.951 64.7009 228.674 65.2077 230.521 65.6132C232.57 66.0186 234.135 66.4691 235.216 66.9646C236.319 67.4376 237.074 67.9557 237.479 68.5188ZM255.82 72.2015C254.829 73.1701 254.334 74.3751 254.334 75.8167C254.334 77.2582 254.829 78.4633 255.82 79.4318C256.834 80.4004 258.173 80.8846 259.84 80.8846C261.506 80.8846 262.835 80.4004 263.826 79.4318C264.839 78.4633 265.346 77.2582 265.346 75.8167C265.346 74.3751 264.839 73.1701 263.826 72.2015C262.835 71.233 261.506 70.7487 259.84 70.7487C258.173 70.7487 256.834 71.233 255.82 72.2015Z" fill="#F8EB7A"/>
<path d="M90.8532 44.23C90.6968 44.1688 90.5378 44.1112 90.3764 44.0574C88.9127 43.5393 87.2801 43.2803 85.4786 43.2803C83.4069 43.2803 81.5153 43.7195 79.8039 44.598C78.2231 45.4202 76.8495 46.5581 75.683 48.0118V28.6169H65.955V80.513H74.7068C74.9947 79.9002 75.2498 79.264 75.4691 78.6058C75.528 78.4293 75.5981 78.2411 75.683 78.0361V54.363C75.7791 54.1886 75.8804 54.0194 75.987 53.8555C76.5725 52.932 77.3494 52.2112 78.3177 51.6931C79.3085 51.1751 80.502 50.916 81.8981 50.916C83.1592 50.916 84.2175 51.1187 85.0732 51.5242C85.9515 51.9071 86.6158 52.5716 87.0661 53.5176C87.2951 53.9648 87.4686 54.4938 87.5868 55.1046C88.8379 51.4609 89.9762 47.5745 90.8532 44.23Z" fill="#E85B5B"/>
<path d="M49.3701 65.2753C49.6403 65.9735 49.7754 66.7619 49.7754 67.6403C49.7754 68.744 49.4939 69.7351 48.9309 70.6136C48.3905 71.492 47.546 72.179 46.3976 72.6745C45.2717 73.1701 43.8305 73.4178 42.074 73.4178C40.6328 73.4178 39.3043 73.2714 38.0882 72.9786C36.8948 72.6858 35.8589 72.2128 34.9807 71.5596C34.125 70.9064 33.4607 70.0504 32.9878 68.9918C32.5149 67.9332 32.2785 66.638 32.2785 65.1064H22.1113C22.1113 67.8768 22.6856 70.2757 23.834 72.3029C24.9824 74.3301 26.5137 75.9969 28.4278 77.3033C30.3644 78.6097 32.5149 79.5895 34.8794 80.2427C37.2438 80.8734 39.642 81.1887 42.074 81.1887C44.7763 81.1887 47.2195 80.8846 49.4038 80.2765C51.5881 79.6683 53.4684 78.7786 55.0447 77.6074C56.621 76.4361 57.8258 75.0058 58.659 73.3165C59.4921 71.6271 59.9087 69.7126 59.9087 67.5728C59.9087 65.5456 59.5597 63.7324 58.8616 62.1331C58.1636 60.5339 57.1277 59.1036 55.7541 57.8423C54.3804 56.5809 52.669 55.4434 50.6198 54.4298C48.5932 53.4162 46.24 52.504 43.5603 51.6931C41.9614 51.1976 40.554 50.6908 39.338 50.1727C38.122 49.6547 37.0974 49.1028 36.2642 48.5172C35.4311 47.9316 34.8005 47.3009 34.3727 46.6251C33.9674 45.9494 33.7647 45.1948 33.7647 44.3614C33.7647 43.2578 34.0574 42.2667 34.6429 41.3882C35.2284 40.4873 36.1066 39.7777 37.2776 39.2597C38.4485 38.7191 39.9123 38.4488 41.6687 38.4488C43.4927 38.4488 45.0014 38.7642 46.1949 39.3948C47.4109 40.0255 48.3117 40.8927 48.8972 41.9964C49.5052 43.0776 49.8092 44.3389 49.8092 45.7805H59.875C59.875 42.8523 59.1206 40.2508 57.6118 37.9758C56.1256 35.7008 54.0314 33.9102 51.3292 32.6037C48.6269 31.2973 45.4631 30.6441 41.8376 30.6441C39.1804 30.6441 36.7371 30.9707 34.5078 31.6239C32.301 32.2771 30.3869 33.2119 28.7656 34.4282C27.1442 35.622 25.8832 37.0636 24.9824 38.7529C24.0817 40.4197 23.6313 42.2779 23.6313 44.3277C23.6313 46.4449 24.0592 48.3032 24.9149 49.9024C25.7931 51.5017 26.9866 52.9094 28.4953 54.1257C30.0266 55.3195 31.7831 56.3669 33.7647 57.2679C35.7688 58.1689 37.8856 58.9797 40.1149 59.7005C42.1191 60.3312 43.7517 60.9394 45.0127 61.525C46.2737 62.1106 47.2533 62.7075 47.9514 63.3157C48.6495 63.9013 49.1223 64.5545 49.3701 65.2753Z" fill="#E85B5B"/>
<path fill-rule="evenodd" clip-rule="evenodd" d="M133.753 51.3268C133.45 50.4679 133.054 49.6777 132.565 48.9563C131.304 47.0643 129.57 45.6452 127.363 44.6992C125.156 43.7532 122.634 43.2802 119.797 43.2802C117.432 43.2802 115.293 43.5843 113.379 44.1924C111.488 44.8006 109.855 45.6452 108.481 46.7264C107.108 47.785 106.061 49.0126 105.34 50.4091C104.619 51.8056 104.259 53.281 104.259 54.8352H113.987C113.987 53.9117 114.201 53.1121 114.629 52.4363C115.057 51.7381 115.665 51.2087 116.453 50.8484C117.241 50.4654 118.176 50.274 119.256 50.274C120.517 50.274 121.542 50.5105 122.33 50.9835C123.141 51.4565 123.738 52.121 124.12 52.9769C124.503 53.8103 124.695 54.8126 124.695 55.9839V58.2476H120.337C117.545 58.2476 115.091 58.5179 112.974 59.0585C110.857 59.5765 109.089 60.3536 107.671 61.3897C106.274 62.4033 105.216 63.6534 104.496 65.14C103.775 66.6267 103.415 68.3272 103.415 70.2418C103.415 72.3591 103.955 74.2511 105.036 75.9179C106.139 77.5622 107.626 78.8574 109.495 79.8034C111.386 80.7269 113.492 81.1886 115.811 81.1886C117.635 81.1886 119.211 80.9183 120.54 80.3778C120.913 80.2195 121.271 80.0498 121.615 79.8684C122.834 77.0971 123.87 74.2657 124.695 71.8937C124.993 71.0345 125.265 70.2357 125.507 69.5217C125.55 69.3939 125.593 69.2688 125.634 69.1465C125.849 68.5146 126.039 67.9593 126.203 67.5001C126.746 65.9793 127.391 64.549 128.357 62.4051C128.548 61.981 128.752 61.5287 128.97 61.0424C129.877 59.0185 131.022 56.4166 132.013 53.4691C132.687 52.6864 133.278 51.9406 133.753 51.3268ZM124.695 70.1805V63.7548H120.608C119.324 63.7548 118.209 63.9012 117.264 64.194C116.318 64.4868 115.541 64.9035 114.933 65.4441C114.325 65.9622 113.875 66.5703 113.582 67.2686C113.312 67.9668 113.176 68.7327 113.176 69.5661C113.176 70.3995 113.368 71.154 113.751 71.8298C114.133 72.483 114.685 73.001 115.406 73.3839C116.126 73.7443 116.971 73.9245 117.939 73.9245C119.403 73.9245 120.675 73.6317 121.756 73.0461C122.837 72.4605 123.67 71.7397 124.256 70.8837C124.425 70.6459 124.571 70.4114 124.695 70.1805Z" fill="#FCA555"/>
<path d="M38.5732 80.9679C39.7323 81.115 40.8992 81.1886 42.0741 81.1886C44.7763 81.1886 47.2196 80.8846 49.4039 80.2764C51.5882 79.6682 53.4685 78.7785 55.0448 77.6073C56.6211 76.436 57.8258 75.0057 58.659 73.3164C59.4922 71.6271 59.9088 69.7125 59.9088 67.5727C59.9088 65.5455 59.5597 63.7323 58.8617 62.133C58.1636 60.5338 57.1277 59.1035 55.7541 57.8422C55.0966 57.2384 54.3617 56.663 53.5494 56.116C52.9331 56.9619 52.3208 57.8911 51.7526 58.8967C49.9902 62.0155 49.2646 63.2046 48.7413 63.8028C48.6957 63.855 48.6503 63.9072 48.6053 63.9596C48.9547 64.3698 49.2096 64.8083 49.3701 65.2752C49.6403 65.9734 49.7754 66.7618 49.7754 67.6402C49.7754 68.7439 49.4939 69.735 48.931 70.6135C48.3905 71.4919 47.5461 72.1789 46.3976 72.6744C45.4777 73.0793 44.3472 73.3188 43.0064 73.3929C42.9909 73.4288 42.9759 73.4636 42.9614 73.4973C42.5661 74.4141 42.3311 74.9285 42.2141 75.1849C42.1847 75.2492 42.1627 75.2973 42.1475 75.3314C40.8605 77.0351 39.6481 78.9857 38.5732 80.9679Z" fill="#FCA555"/>
<path d="M75.683 30.0107C75.5807 30.1281 75.4698 30.2545 75.3442 30.3974C75.0753 30.7036 74.7394 31.0862 74.2797 31.618C73.2846 32.7693 71.8555 34.4689 70.4823 36.5697C69.1082 38.6717 67.6965 40.439 65.955 42.4433V80.5129H75.683V54.3629C75.7791 54.1885 75.8805 54.0193 75.987 53.8554C76.5725 52.9319 77.3494 52.2111 78.3177 51.693C79.3085 51.175 80.502 50.9159 81.8981 50.9159C83.1592 50.9159 84.2176 51.1187 85.0733 51.5241C85.9515 51.907 86.6158 52.5715 87.0662 53.5175C87.539 54.441 87.7755 55.7136 87.7755 57.3354V80.5129H97.5711V57.4029C97.5711 54.8352 97.2783 52.6503 96.6928 50.8484C96.1074 49.0464 95.2742 47.5936 94.1933 46.4899C93.1349 45.3637 91.8626 44.5528 90.3764 44.0573C88.9127 43.5392 87.2801 43.2802 85.4786 43.2802C83.4069 43.2802 81.5153 43.7194 79.8039 44.5979C78.2231 45.4201 76.8495 46.558 75.683 48.0117V30.0107Z" fill="#FCA555"/>
</g>
<defs>
<clipPath id="clip0_31_144">
<rect width="125.778" height="55.2988" fill="white" transform="translate(22.1113 86.3555)"/>
</clipPath>
<clipPath id="clip1_31_144">
<rect width="116.832" height="57.4673" fill="white" transform="translate(22.1113 28.6169)"/>
</clipPath>
</defs>
</svg>
